<svg id="Layer_1" data-name="Layer 1" xmlns="http://www.w3.org/2000/svg" viewBox="0 0 500 146.74"><defs><style>.cls-1{fill:#710273;}</style></defs><path class="cls-1" d="M8.81,11H27.3V88.46H76.7v17.05H8.81Z"/><path class="cls-1" d="M84.49,69.83c0-21.67,15.89-37.55,38.42-37.55S161,48.16,161,69.83V75.9h-58.5c2.31,10.4,10.26,15.88,20.37,15.88,7.65,0,13.29-2.16,16.9-6.79h18.34c-5.34,13.58-18.34,22.39-35.24,22.39C100.38,107.38,84.49,91.5,84.49,69.83Zm58.35-7.66c-2.74-9.53-10.54-14.3-19.93-14.3-9.68,0-17.19,4.92-19.93,14.3Z"/><path class="cls-1" d="M171.87,113.3H189.2C192.09,120,199,123,208.12,123c12.71,0,20.65-5.92,20.65-22.53V94.24c-4.91,7.94-13.43,12.28-24.12,12.28-17,0-35.24-11.41-35.24-36.69,0-21.67,15.89-37.55,38.42-37.55S246,47.3,246,70.41V99.87c0,27.3-16.9,38-37.84,38C190.35,137.86,176.34,130.2,171.87,113.3Zm56.9-43.47c0-12.57-8.37-21.52-20.94-21.52s-21.09,8.95-21.09,21.52,8.52,20.65,21.09,20.65S228.77,82.4,228.77,69.83Z"/><path class="cls-1" d="M257.22,70.55c0-22.68,15.89-38.27,38.56-38.27,22.39,0,38,15.16,38,38.13v35.1H318v-14c-4.34,10.54-14,15.88-25.28,15.88C275.42,107.38,257.22,95,257.22,70.55Zm59.36-.72c0-12.57-8.38-21.52-20.94-21.52s-21.09,8.95-21.09,21.52,8.52,21.52,21.09,21.52S316.58,82.4,316.58,69.83Z"/><path class="cls-1" d="M347.92,78.06V8.88H365.1V34.15h36.84v15.6H365.1V78.06c0,9.54,4.91,13.29,12,13.29s12-3.61,12-13.29V76.18h17.19v1.88c0,19.79-11.85,29.32-29.18,29.32S347.92,97.85,347.92,78.06Z"/><path class="cls-1" d="M414.35,69.83c0-21.67,15.89-37.55,38.42-37.55s38.42,15.88,38.42,37.55-15.89,37.55-38.42,37.55S414.35,91.5,414.35,69.83Zm59.36,0c0-12.57-8.37-21.52-20.94-21.52s-21.09,8.95-21.09,21.52,8.53,21.52,21.09,21.52S473.71,82.4,473.71,69.83Z"/></svg>